<svg xmlns="http://www.w3.org/2000/svg" width="1200" height="720" viewBox="0 0 1200 720">
<rect width="100%" height="100%" fill="#f8fafc"/>
<text x="600.0" y="42" font-family="Arial, sans-serif" font-size="24" fill="#0f172a" text-anchor="middle" font-weight="700">CB Return Distribution Since 2024</text>
<text x="600.0" y="72" font-family="Arial, sans-serif" font-size="15" fill="#475569" text-anchor="middle" font-weight="400">Buy: Issue Date -30 Trading Anchor, Sell: Issue Date +8</text>
<line x1="80" y1="600.0" x2="1150" y2="600.0" stroke="#dbe3ef" stroke-width="1"/>
<text x="66" y="605.0" font-family="Arial, sans-serif" font-size="13" fill="#64748b" text-anchor="end" font-weight="400">0</text>
<line x1="80" y1="502.0" x2="1150" y2="502.0" stroke="#dbe3ef" stroke-width="1"/>
<text x="66" y="507.0" font-family="Arial, sans-serif" font-size="13" fill="#64748b" text-anchor="end" font-weight="400">5</text>
<line x1="80" y1="404.0" x2="1150" y2="404.0" stroke="#dbe3ef" stroke-width="1"/>
<text x="66" y="409.0" font-family="Arial, sans-serif" font-size="13" fill="#64748b" text-anchor="end" font-weight="400">10</text>
<line x1="80" y1="306.0" x2="1150" y2="306.0" stroke="#dbe3ef" stroke-width="1"/>
<text x="66" y="311.0" font-family="Arial, sans-serif" font-size="13" fill="#64748b" text-anchor="end" font-weight="400">15</text>
<line x1="80" y1="208.0" x2="1150" y2="208.0" stroke="#dbe3ef" stroke-width="1"/>
<text x="66" y="213.0" font-family="Arial, sans-serif" font-size="13" fill="#64748b" text-anchor="end" font-weight="400">20</text>
<line x1="80" y1="110.0" x2="1150" y2="110.0" stroke="#dbe3ef" stroke-width="1"/>
<text x="66" y="115.0" font-family="Arial, sans-serif" font-size="13" fill="#64748b" text-anchor="end" font-weight="400">25</text>
<rect x="80.0" y="580.4" width="90.0" height="19.6" rx="4" fill="#ef4444" opacity="0.85"/>
<text x="125.0" y="572.4" font-family="Arial, sans-serif" font-size="13" fill="#0f172a" text-anchor="middle" font-weight="700">1</text>
<text x="125.0" y="628" font-family="Arial, sans-serif" font-size="12" fill="#475569" text-anchor="middle" transform="rotate(-35 125.0 628)">< -30</text>
<rect x="178.0" y="600.0" width="90.0" height="0.0" rx="4" fill="#ef4444" opacity="0.85"/>
<text x="223.0" y="592.0" font-family="Arial, sans-serif" font-size="13" fill="#0f172a" text-anchor="middle" font-weight="700">0</text>
<text x="223.0" y="628" font-family="Arial, sans-serif" font-size="12" fill="#475569" text-anchor="middle" transform="rotate(-35 223.0 628)">-30 to -20</text>
<rect x="276.0" y="306.0" width="90.0" height="294.0" rx="4" fill="#ef4444" opacity="0.85"/>
<text x="321.0" y="298.0" font-family="Arial, sans-serif" font-size="13" fill="#0f172a" text-anchor="middle" font-weight="700">15</text>
<text x="321.0" y="628" font-family="Arial, sans-serif" font-size="12" fill="#475569" text-anchor="middle" transform="rotate(-35 321.0 628)">-20 to -10</text>
<rect x="374.0" y="208.0" width="90.0" height="392.0" rx="4" fill="#ef4444" opacity="0.85"/>
<text x="419.0" y="200.0" font-family="Arial, sans-serif" font-size="13" fill="#0f172a" text-anchor="middle" font-weight="700">20</text>
<text x="419.0" y="628" font-family="Arial, sans-serif" font-size="12" fill="#475569" text-anchor="middle" transform="rotate(-35 419.0 628)">-10 to -5</text>
<rect x="472.0" y="110.0" width="90.0" height="490.0" rx="4" fill="#ef4444" opacity="0.85"/>
<text x="517.0" y="102.0" font-family="Arial, sans-serif" font-size="13" fill="#0f172a" text-anchor="middle" font-weight="700">25</text>
<text x="517.0" y="628" font-family="Arial, sans-serif" font-size="12" fill="#475569" text-anchor="middle" transform="rotate(-35 517.0 628)">-5 to 0</text>
<rect x="570.0" y="208.0" width="90.0" height="392.0" rx="4" fill="#facc15" opacity="0.85"/>
<text x="615.0" y="200.0" font-family="Arial, sans-serif" font-size="13" fill="#0f172a" text-anchor="middle" font-weight="700">20</text>
<text x="615.0" y="628" font-family="Arial, sans-serif" font-size="12" fill="#475569" text-anchor="middle" transform="rotate(-35 615.0 628)">0 to 5</text>
<rect x="668.0" y="364.8" width="90.0" height="235.2" rx="4" fill="#facc15" opacity="0.85"/>
<text x="713.0" y="356.8" font-family="Arial, sans-serif" font-size="13" fill="#0f172a" text-anchor="middle" font-weight="700">12</text>
<text x="713.0" y="628" font-family="Arial, sans-serif" font-size="12" fill="#475569" text-anchor="middle" transform="rotate(-35 713.0 628)">5 to 10</text>
<rect x="766.0" y="443.2" width="90.0" height="156.8" rx="4" fill="#22c55e" opacity="0.85"/>
<text x="811.0" y="435.2" font-family="Arial, sans-serif" font-size="13" fill="#0f172a" text-anchor="middle" font-weight="700">8</text>
<text x="811.0" y="628" font-family="Arial, sans-serif" font-size="12" fill="#475569" text-anchor="middle" transform="rotate(-35 811.0 628)">10 to 20</text>
<rect x="864.0" y="404.0" width="90.0" height="196.0" rx="4" fill="#22c55e" opacity="0.85"/>
<text x="909.0" y="396.0" font-family="Arial, sans-serif" font-size="13" fill="#0f172a" text-anchor="middle" font-weight="700">10</text>
<text x="909.0" y="628" font-family="Arial, sans-serif" font-size="12" fill="#475569" text-anchor="middle" transform="rotate(-35 909.0 628)">20 to 40</text>
<rect x="962.0" y="482.4" width="90.0" height="117.6" rx="4" fill="#22c55e" opacity="0.85"/>
<text x="1007.0" y="474.4" font-family="Arial, sans-serif" font-size="13" fill="#0f172a" text-anchor="middle" font-weight="700">6</text>
<text x="1007.0" y="628" font-family="Arial, sans-serif" font-size="12" fill="#475569" text-anchor="middle" transform="rotate(-35 1007.0 628)">40 to 60</text>
<rect x="1060.0" y="521.6" width="90.0" height="78.4" rx="4" fill="#22c55e" opacity="0.85"/>
<text x="1105.0" y="513.6" font-family="Arial, sans-serif" font-size="13" fill="#0f172a" text-anchor="middle" font-weight="700">4</text>
<text x="1105.0" y="628" font-family="Arial, sans-serif" font-size="12" fill="#475569" text-anchor="middle" transform="rotate(-35 1105.0 628)">>= 60</text>
<line x1="80" y1="600" x2="1150" y2="600" stroke="#0f172a" stroke-width="1.4"/>
<line x1="80" y1="110" x2="80" y2="600" stroke="#0f172a" stroke-width="1.4"/>
<text x="600.0" y="692" font-family="Arial, sans-serif" font-size="15" fill="#0f172a" text-anchor="middle" font-weight="700">Return bucket (%)</text>
<text transform="rotate(-90 24 355.0)" x="24" y="355.0" font-family="Arial, sans-serif" font-size="15" fill="#0f172a" text-anchor="middle" font-weight="700">CB cases</text>
<text x="600.0" y="95" font-family="Arial, sans-serif" font-size="14" fill="#334155" text-anchor="middle" font-weight="400">N=121 | Avg=5.2% | Median=-0.15% | Win=48.8% | >=20%=16.5% | <=-10%=14.0%</text>
</svg>